<svg width="13" height="20" fill="none" xmlns="http://www.w3.org/2000/svg"><path d="M7.783 19.52H4.585c-.534 0-.97-.408-.97-.91v-6.777H1.75c-.535 0-.97-.409-.97-.91V8.019c0-.502.435-.91.97-.91h1.866V5.654c0-1.442.482-2.668 1.394-3.547.916-.883 2.195-1.35 3.701-1.35l2.44.004c.533.001.967.41.967.91v2.697c0 .502-.435.91-.969.91H9.507c-.501 0-.629.095-.656.124-.045.048-.099.183-.099.558v1.148h2.274c.17 0 .337.04.479.115a.906.906 0 01.498.796v2.904c0 .501-.435.91-.97.91h-2.28v6.777c0 .502-.435.91-.97.91zm-2.996-1.1H7.58v-7.08c0-.335.29-.607.647-.607h2.603l.001-2.525H8.228c-.356 0-.647-.272-.647-.607V5.96c0-.43.047-.919.392-1.286.417-.444 1.075-.495 1.533-.495l1.44-.001V1.861L8.71 1.858c-2.42 0-3.923 1.455-3.923 3.796v1.947c0 .335-.29.607-.647.607H1.952v2.525H4.14c.357 0 .647.272.647.607v7.08zm6.361-16.56z" fill="#fff"/></svg>