<svg width="12" height="20" fill="none" xmlns="http://www.w3.org/2000/svg"><path d="M7.334 19.381H4.136c-.535 0-.97-.408-.97-.91v-6.777H1.302c-.535 0-.97-.409-.97-.91V7.88c0-.502.435-.91.97-.91h1.866V5.516c0-1.442.482-2.67 1.393-3.548.916-.883 2.196-1.35 3.702-1.35l2.44.005c.533 0 .966.409.966.91v2.696c0 .502-.434.91-.968.91H9.057c-.5 0-.628.095-.655.124-.045.048-.099.183-.099.558V6.97h2.273c.171 0 .337.04.48.114a.906.906 0 01.498.796v2.904c0 .502-.436.91-.97.91h-2.28v6.777c0 .502-.436.91-.97.91zm-2.996-1.1h2.794v-7.08c0-.335.29-.607.647-.607h2.603l.001-2.524H7.78c-.357 0-.647-.273-.647-.608V5.821c0-.43.047-.919.392-1.286.417-.444 1.075-.495 1.533-.495h1.44V1.721L8.261 1.72c-2.42 0-3.923 1.455-3.923 3.797v1.946c0 .335-.29.608-.647.608H1.503v2.524H3.69c.356 0 .647.272.647.607v7.08zm6.36-16.558h.001z" fill="#181B46"/></svg>