<svg width="101" height="92" fill="none" xmlns="http://www.w3.org/2000/svg"><path d="M100.441 12.758l-.001-.033a1.85 1.85 0 00-.009-.13l-.007-.047a1.464 1.464 0 00-.022-.117l-.012-.045a1.295 1.295 0 00-.039-.122l-.007-.023L96.38 2.006A2.632 2.632 0 0093.914.308h-7.218a1.43 1.43 0 00-1.424 1.437 1.43 1.43 0 001.424 1.436h7.08l3.155 8.146H67.106l-1.87-8.146h11.016a1.43 1.43 0 001.424-1.436A1.43 1.43 0 0076.252.308H18.62a2.631 2.631 0 00-2.465 1.698l-3.964 10.235-.007.023a1.38 1.38 0 00-.073.284l-.007.047a1.507 1.507 0 00-.009.13l-.001.033v21.114a1.43 1.43 0 001.424 1.437 1.43 1.43 0 001.425-1.437V14.201h30.195V36.04a2.18 2.18 0 001.27 1.983 2.147 2.147 0 002.314-.355l7.545-6.742 7.545 6.741a2.144 2.144 0 002.314.356 2.179 2.179 0 001.27-1.983V14.2h30.196v64.445c0 1.031-.832 1.87-1.854 1.87h-26.12l-.002-.049a5.257 5.257 0 00-.017-.385c2.452.656 5.073-.615 6.056-3.047a5.176 5.176 0 00-.185-4.307l-.032-.063a5.16 5.16 0 00-.182-.32l-.038-.06a5.094 5.094 0 00-.213-.312L75 71.966a5.134 5.134 0 00-.234-.289l-.044-.051a5.084 5.084 0 00-.25-.263l-.052-.048a4.988 4.988 0 00-.28-.248l-.01-.008a5.134 5.134 0 00-.295-.22l-.054-.039a5.157 5.157 0 00-.31-.195l-.026-.016a5.146 5.146 0 001.387-1.956 5.177 5.177 0 00-.022-3.956 5.115 5.115 0 00-2.789-2.783l-22.17-9.118 10.32-3.222c2.455-.766 3.838-3.407 3.082-5.887a4.614 4.614 0 00-1.563-2.277 4.765 4.765 0 00-3.935-.93l-.02.004a652.9 652.9 0 01-17.33 3.647l-.831.161-.235.045a363.448 363.448 0 01-1.942.366c-10.377 1.928-13.292 1.963-14.1 1.852h-.01a9.054 9.054 0 01-.035-.006l-.024-.004-.016-.003c-.05-.01-.09-.019-.12-.028l-.234-.096.29-.72a2.864 2.864 0 00-.277-2.686 2.821 2.821 0 00-1.277-1.042l-7.651-3.147a2.83 2.83 0 00-3.697 1.568L.89 63.516c-.59 1.46.107 3.133 1.555 3.728l7.652 3.147c.349.144.71.212 1.066.212a2.84 2.84 0 002.63-1.78l.07-.174 1.764.725.004.001a15.63 15.63 0 016.286 4.731A18.523 18.523 0 0029.35 79.7l1.984.816H16.798a1.864 1.864 0 01-1.854-1.87V75.01a1.43 1.43 0 00-1.425-1.437 1.43 1.43 0 00-1.424 1.437v3.635c0 2.616 2.11 4.744 4.703 4.744h21.525l18.35 7.547c.632.26 1.285.383 1.93.382a5.134 5.134 0 004.752-3.217 5.18 5.18 0 00.349-2.505 5.25 5.25 0 002.841-.38 5.089 5.089 0 002.204-1.828h26.99c2.593 0 4.703-2.127 4.703-4.743V12.764l-.001-.006zM50.224 3.181h12.088l1.87 8.146H48.354l1.869-8.146zm-4.793 8.146H15.605l3.155-8.146H47.3l-1.87 8.146zm19.118 23.159l-6.852-6.122a2.14 2.14 0 00-2.858 0l-6.85 6.122V14.2h16.56v20.285zM11.16 67.724l-7.627-3.136L12.88 41.47l7.627 3.136-9.346 23.118zm56.911 8.671l-1.635-.672-.002-.001-.002-.001-17.027-7.003a1.42 1.42 0 00-1.857.788 1.441 1.441 0 00.781 1.873l17.027 7.003c.072.03.14.062.207.097l.054.033c.047.026.094.053.138.083.021.014.04.03.061.046.04.028.08.056.117.087.022.018.042.039.064.058.033.03.067.058.098.09.022.021.04.045.062.068.028.03.058.061.085.094.02.025.038.051.057.077.025.032.05.064.073.097l.052.086c.02.033.042.066.06.1.017.03.031.062.046.094.017.033.035.066.05.1.014.034.025.068.038.101.013.034.027.068.038.102.011.035.02.07.03.106.009.035.02.069.028.104.008.036.013.072.02.108.005.035.013.07.018.107.004.036.006.073.009.109.003.036.007.073.008.11.002.035 0 .072 0 .108-.001.037 0 .075-.003.112-.002.036-.007.071-.011.107-.004.038-.007.076-.013.114-.006.035-.015.07-.022.105-.008.039-.015.078-.026.116-.008.034-.02.068-.031.102-.012.038-.023.077-.038.115a2.23 2.23 0 00-.035.079l-.006.018c-.222.518-.633.93-1.17 1.164a2.392 2.392 0 01-1.854.023l-3.017-1.24-.042-.015-.043-.02-13.848-5.695a1.42 1.42 0 00-1.857.788 1.441 1.441 0 00.781 1.873l13.849 5.695.045.016.04.019a2.306 2.306 0 011.248 2.993 2.272 2.272 0 01-2.968 1.26l-18.606-7.653-.003-.001-8.713-3.584a15.67 15.67 0 01-6.286-4.73 18.55 18.55 0 00-7.433-5.595l-1.767-.726 3.518-8.703 3.325-8.225.245.101c.231.095.56.23 1.447.264 1.107.05 2.938-.066 6.22-.534 2.231-.318 4.97-.778 8.165-1.37l.237-.045.452-.084.355-.067.41-.078.443-.084.357-.069.55-.106.285-.055c.283-.055.57-.11.861-.168a654.421 654.421 0 0016.54-3.494c.035-.008.071-.012.107-.017.915-.137 1.811.397 2.074 1.258.092.303.103.611.044.902a1.833 1.833 0 01-1.246 1.396l-14.123 4.41a1.433 1.433 0 00-1.002 1.31 1.437 1.437 0 00.886 1.392l25.856 10.634a2.27 2.27 0 011.24 1.236 2.3 2.3 0 01.009 1.758 2.272 2.272 0 01-2.096 1.43l-.013-.001c-.069 0-.138-.003-.207-.01-.02-.001-.041-.005-.061-.008a1.74 1.74 0 01-.159-.023c-.033-.006-.065-.016-.098-.024-.04-.01-.08-.017-.118-.029-.04-.012-.08-.028-.12-.042-.031-.012-.064-.021-.095-.034L52.2 61.805a1.42 1.42 0 00-1.857.788 1.441 1.441 0 00.781 1.873l20.645 8.49a2.273 2.273 0 011.239 1.236 2.296 2.296 0 01-.617 2.631c-.013.011-.025.024-.038.034a2.268 2.268 0 01-2.303.352l-1.979-.814z" fill="#161C36"/></svg>