<svg width="85" height="92" fill="none" xmlns="http://www.w3.org/2000/svg"><path d="M79.7 34.599H42.814L27.516 19.3a12.069 12.069 0 00-3.52-8.241c-4.694-4.693-12.33-4.693-17.023 0a11.955 11.955 0 00-3.525 8.51c0 3.216 1.251 6.239 3.525 8.512a12.066 12.066 0 008.241 3.521L18.21 34.6H4.495a4.424 4.424 0 00-4.42 4.419V43a4.425 4.425 0 004.42 4.42h.578v20.736c0 8.665 6.797 15.771 15.339 16.27v3.372a3.784 3.784 0 003.78 3.78h35.835a3.784 3.784 0 003.779-3.78v-3.372c8.542-.499 15.339-7.605 15.339-16.27V47.419h.554A4.424 4.424 0 0084.12 43v-3.98a4.425 4.425 0 00-4.42-4.42zm-62.496-6.042a1.789 1.789 0 00-1.339-.52 8.49 8.49 0 01-6.374-2.473 8.423 8.423 0 01-2.482-5.993c0-2.264.881-4.392 2.482-5.993 3.304-3.305 8.682-3.305 11.986 0a8.501 8.501 0 012.474 6.374c-.023.5.166.985.519 1.339l13.308 13.308H23.246l-6.042-6.042zm43.041 59.241c0 .12-.098.218-.218.218H24.19a.218.218 0 01-.218-.218v-3.343h36.271v3.343h.001zM80.557 43a.86.86 0 01-.858.858H49.268a1.78 1.78 0 000 3.561h26.316v20.737c0 7.024-5.715 12.737-12.738 12.737H21.372c-7.023 0-12.737-5.713-12.737-12.737V47.419h26.388a1.78 1.78 0 100-3.56H4.495a.86.86 0 01-.858-.86v-3.98a.86.86 0 01.858-.858h75.204c.473 0 .858.384.858.858v3.98z" fill="#161C36"/><path d="M65.099 29.122a12.634 12.634 0 0012.16-3.258 12.638 12.638 0 003.258-12.16 1.781 1.781 0 00-1.262-1.261 12.64 12.64 0 00-12.16 3.258 12.637 12.637 0 00-3.257 12.16 1.78 1.78 0 001.26 1.26zm4.515-10.902a9.066 9.066 0 017.676-2.55 9.065 9.065 0 01-2.55 7.676 9.062 9.062 0 01-7.675 2.549 9.06 9.06 0 012.549-7.675zm-25.586-3.96a12.629 12.629 0 0012.159 3.258 1.781 1.781 0 001.262-1.261 12.634 12.634 0 00-3.259-12.16A12.634 12.634 0 0042.031.84 1.78 1.78 0 0040.77 2.1a12.636 12.636 0 003.259 12.16zm-.032-10.194a9.068 9.068 0 017.676 2.55 9.065 9.065 0 012.55 7.675 9.068 9.068 0 01-7.676-2.55 9.065 9.065 0 01-2.55-7.675zm-1.851 39.792c-.47 0-.928.19-1.259.522-.33.33-.521.79-.521 1.258 0 .469.19.928.521 1.26.33.33.79.521 1.26.521.467 0 .927-.19 1.258-.522.331-.33.522-.79.522-1.258 0-.469-.19-.928-.522-1.26a1.798 1.798 0 00-1.259-.521z" fill="#161C36"/></svg>