<svg width="87" height="87" fill="none" xmlns="http://www.w3.org/2000/svg"><path d="M85.653 30.498l-22.978-4.594a23.416 23.416 0 001.895-7.667C64.57 8.384 56.096.37 45.68.37c-10.418 0-18.892 8.014-18.892 17.867 0 2.898 1.563 7.286 3.738 11.979l-1.055.222-26.937-5.671a1.433 1.433 0 00-1.729 1.402v53.034c0 .677.475 1.263 1.138 1.402l27.233 5.734c.195.04.396.04.591 0l26.946-5.673 28.377 5.675a1.433 1.433 0 001.715-1.405V31.903c0-.683-.482-1.271-1.152-1.405zM28.038 83.17L3.672 78.04V59.935c5.05 1.495 15.835 5.37 24.366 13.01V83.17zm0-13.99A71.403 71.403 0 003.672 56.954V45.455c5.157-2.46 16.22-6.229 24.366 1.423v22.303zm0-26.035c-8.574-6.2-19.131-3.074-24.366-.832V27.936l24.366 5.13v10.079zm2.867 40.025v-7.43a36.539 36.539 0 014.763 6.427l-4.763 1.003zm24.367-5.13l-16.66 3.507a40.252 40.252 0 00-7.707-9.847V49.992a49.482 49.482 0 015.222 8.44c3.415 6.538 6.41 12.202 19.145 13.47v6.138zm0-9.013c-10.953-1.156-13.36-5.71-16.604-11.922a45.333 45.333 0 00-7.763-11.437V33.065l.901-.19A189.162 189.162 0 0042.95 51.979a3.33 3.33 0 005.46 0c1.319-1.94 4.03-6.184 6.862-11.135v28.183zm.131-34.357c-.006.014-.015.026-.021.04a179.451 179.451 0 01-9.343 15.657.465.465 0 01-.718 0c-5.463-8.032-15.666-25.703-15.666-32.13 0-8.27 7.189-15 16.024-15s16.024 6.73 16.024 15c0 3.378-2.829 9.87-6.3 16.433zm28.535 48.518l-25.8-5.16v-5.913a63.23 63.23 0 003.028.084c11.96 0 19.285-3.557 22.772-5.854v16.843zm0-20.4c-1.866 1.532-9.99 7.233-25.8 6.444V41.354a32.438 32.438 0 0025.8 13.446v7.988zm0-10.853c-18.046-.678-24.86-13.99-25.8-16.038v-.265c1.242-2.357 2.42-4.746 3.421-7.028l22.38 4.475v18.856z" fill="#161C36"/><path d="M45.678 9.82a8.6 8.6 0 100 17.2 8.61 8.61 0 008.6-8.6 8.6 8.6 0 00-8.6-8.6zm0 14.332a5.733 5.733 0 110-11.466 5.733 5.733 0 010 11.466z" fill="#161C36"/></svg>