<svg width="18" height="18" fill="none" xmlns="http://www.w3.org/2000/svg"><path fill-rule="evenodd" clip-rule="evenodd" d="M9.45.605c-2.318 0-2.608.01-3.519.052-.908.042-1.528.185-2.07.396a4.179 4.179 0 00-1.512.984 4.19 4.19 0 00-.985 1.512c-.212.543-.356 1.163-.397 2.071-.04.91-.051 1.201-.051 3.519 0 2.317.01 2.607.051 3.518.042.908.186 1.528.397 2.07a4.18 4.18 0 00.984 1.512c.474.475.95.767 1.511.985.543.211 1.163.355 2.072.397.91.041 1.2.051 3.518.051 2.318 0 2.608-.01 3.518-.051.908-.042 1.53-.186 2.072-.397a4.176 4.176 0 001.51-.985 4.19 4.19 0 00.986-1.511c.21-.543.353-1.163.396-2.071.04-.91.052-1.2.052-3.518 0-2.318-.011-2.608-.052-3.519-.043-.908-.187-1.528-.396-2.07a4.19 4.19 0 00-.985-1.513 4.17 4.17 0 00-1.511-.984C14.495.843 13.873.7 12.966.657c-.91-.041-1.2-.052-3.519-.052h.003zm-.766 1.538h.766c2.278 0 2.549.008 3.448.05.832.037 1.284.176 1.585.293.398.155.682.34.98.638.299.3.484.584.639.982.117.3.256.752.294 1.584.04.9.05 1.17.05 3.447s-.01 2.547-.05 3.447c-.038.832-.177 1.284-.294 1.584-.155.398-.34.682-.639.98a2.64 2.64 0 01-.98.639c-.3.117-.753.256-1.585.294-.9.04-1.17.05-3.448.05-2.279 0-2.549-.01-3.448-.05-.832-.039-1.284-.178-1.585-.295a2.644 2.644 0 01-.981-.638 2.645 2.645 0 01-.639-.98c-.117-.301-.256-.753-.294-1.585-.04-.9-.049-1.17-.049-3.448 0-2.279.009-2.548.05-3.447.037-.832.176-1.284.293-1.585.155-.398.34-.682.639-.981.299-.299.583-.484.981-.639.301-.117.753-.256 1.585-.294.787-.035 1.092-.046 2.682-.048v.002zm5.321 1.417a1.024 1.024 0 100 2.048 1.024 1.024 0 000-2.048zM9.45 4.757a4.382 4.382 0 100 8.765 4.382 4.382 0 000-8.765zm0 1.537a2.844 2.844 0 110 5.69 2.844 2.844 0 010-5.69z" fill="#fff"/></svg>