<svg width="836" height="131" fill="none" xmlns="http://www.w3.org/2000/svg"><path d="M438.802 37.55c0-5.907-4.063-10.187-9.599-10.187-5.612 0-9.599 4.28-9.599 10.188 0 5.907 3.987 10.187 9.599 10.187 5.536 0 9.599-4.28 9.599-10.187zM448.621.999v55.01h-9.45v-2.435a18.813 18.813 0 01-10.264 3.03c-10.559 0-19.052-8.566-19.052-19.052 0-10.487 8.493-19.052 19.052-19.052 3.765 0 7.31 1.11 10.264 3.024V.998h9.45zm8.335 18.089h9.453v36.919h-9.453V19.088zm-.445-11.812c0-2.808 2.365-5.094 5.17-5.094 2.807 0 5.17 2.286 5.17 5.094 0 2.88-2.363 5.17-5.17 5.17-2.805 0-5.17-2.29-5.17-5.17zm42.679 12.259l-2.585 9.892c-1.698-1.326-3.469-2.213-4.725-2.213-4.505 0-7.755 3.545-7.755 8.49v20.305h-9.449V19.09h9.449v3.692c2.659-2.658 6.277-4.283 9.969-4.283 1.847 0 3.545.366 5.096 1.036zm9.885 15.58l17.796-3.18c-1.771-3.545-5.612-5.831-9.45-5.46-3.914.29-7.31 3.47-8.124 7.457l-.222 1.183zm28.578 8.782c-.667 1.698-6.203 12.258-19.052 12.258-7.386 0-14.842-4.723-17.723-12.185-.887-2.137-1.329-4.5-1.329-6.865a19.005 19.005 0 0119.052-19.052c10.264 0 18.607 8.124 18.976 18.315 0 .371.076.661 0 .96l-27.173 4.944a8.867 8.867 0 008.197 5.32c6.35 0 10.633-4.655 11.148-6.204l7.904 2.51zm4.717-6.347c0-10.486 8.489-19.051 19.052-19.051 7.087 0 13.291 3.838 16.537 9.675l-8.49 4.133c-1.993-3.03-5.02-4.944-8.047-4.944-5.539 0-9.6 4.28-9.6 10.188 0 5.907 4.061 10.187 9.6 10.187 3.027 0 6.054-1.92 8.047-4.944l8.49 4.133c-3.246 5.832-9.45 9.676-16.537 9.676-10.563 0-19.052-8.566-19.052-19.052zm65.473 14.622s-3.987 4.433-10.413 4.433c-6.349 0-11.224-3.106-11.224-10.785V27.582h-4.502v-8.493h4.502V6.761l9.453-.222v12.55h8.712v8.493h-8.712v15.357c0 3.03 1.771 4.877 3.838 4.877 2.512 0 4.283-1.996 4.283-3.179l4.063 7.535zM612.638.999h9.453v55.01h-9.453V.999zm49.248 18.091l-19.199 51.025h-9.45l6.719-17.87-13.068-33.156h9.45l8.273 20.9 7.822-20.9h9.453zm40.22 7.015h-6.203v29.904h-9.453V26.105h-4.356v-7.24h4.356V8.461c0-3.917 2.954-7.978 7.755-7.978 4.505 0 7.679 1.253 7.679 1.253L699.966 8.9s-1.183-.366-2.143-.366c-1.256 0-1.92.588-1.92 2.728v7.603h6.203v7.24zm30.343-6.57l-2.585 9.892c-1.698-1.326-3.469-2.213-4.725-2.213-4.502 0-7.754 3.545-7.754 8.49v20.305h-9.45V19.09h9.45v3.692c2.661-2.658 6.279-4.283 9.971-4.283a12.7 12.7 0 015.093 1.036zm29.388 18.015c0-5.907-4.061-10.187-9.597-10.187-5.612 0-9.602 4.28-9.602 10.188 0 5.907 3.99 10.187 9.602 10.187 5.536 0 9.597-4.28 9.597-10.187zm-29.018 0c0-10.486 8.566-19.051 19.05-19.051 10.559 0 19.052 8.565 19.052 19.052 0 10.486-8.493 19.052-19.052 19.052-10.484 0-19.05-8.566-19.05-19.052zm102.988-2.142V56.01h-9.673V35.631c0-4.945-3.176-8.417-7.679-8.417-4.505 0-7.752 3.545-7.752 8.493v20.302h-9.599V35.631c0-4.945-3.249-8.417-7.755-8.417-4.502 0-7.752 3.545-7.752 8.493v20.302h-9.453V19.09h9.453v3.695c2.658-2.661 6.277-4.283 9.968-4.283 5.094 0 9.228 2.286 11.886 5.98 2.661-3.62 7.166-5.98 13.217-5.98 9.011 0 15.139 7.307 15.139 16.906zM445.52 109.103v20.601h-9.597v-20.308c0-4.948-3.252-8.566-7.755-8.566-4.505 0-7.752 3.545-7.752 8.566v20.308h-9.452v-55.01h9.452v21.853c2.656-2.729 6.274-4.356 9.966-4.356 9.084 0 15.138 7.386 15.138 16.912zm34.326 2.138c0-5.908-4.06-10.188-9.596-10.188-5.539 0-9.603 4.28-9.603 10.188s4.064 10.188 9.603 10.188c5.536 0 9.596-4.28 9.596-10.188zm9.819-18.458v36.922h-9.45v-2.436a18.847 18.847 0 01-10.264 3.024c-10.556 0-19.049-8.566-19.049-19.052 0-10.486 8.493-19.052 19.049-19.052 3.768 0 7.31 1.11 10.264 3.03v-2.436h9.45zm62.313.002l-12.776 36.919h-9.453l-7.456-23.78-7.459 23.78h-9.45l-12.773-36.919h9.45l8.048 23.259 8.048-23.259h8.27l8.047 23.259 8.051-23.259h9.453zm29.366 18.456c0-5.908-4.06-10.188-9.596-10.188-5.539 0-9.602 4.28-9.602 10.188s4.063 10.188 9.602 10.188c5.536 0 9.596-4.28 9.596-10.188zm9.819-18.458v36.922h-9.45v-2.436a18.843 18.843 0 01-10.263 3.024c-10.557 0-19.05-8.566-19.05-19.052 0-10.486 8.493-19.052 19.05-19.052 3.767 0 7.31 1.11 10.263 3.03v-2.436h9.45zm8.338.002h9.453v36.919h-9.453V92.785zm-.442-11.818c0-2.802 2.36-5.094 5.167-5.094 2.805 0 5.17 2.292 5.17 5.094 0 2.88-2.365 5.17-5.17 5.17-2.807 0-5.167-2.29-5.167-5.17zm18.595 11.818h9.453v36.919h-9.453V92.785zm-.442-11.818c0-2.802 2.362-5.094 5.167-5.094 2.807 0 5.17 2.292 5.17 5.094 0 2.88-2.363 5.17-5.17 5.17-2.805 0-5.167-2.29-5.167-5.17zm-292.79 48.601h39.594V.15h-39.594v129.418zm-51.096-64.703l36.711 36.71-27.99 27.987-36.707-36.71-27.987-27.987 27.987-28.017L282.047.138l27.99 27.986-36.711 36.74zm-62.178 64.697h-39.58V.138h39.58v129.424zM80.08 86.53v.03l-.235.406-.234-.407.234-.442.234.413z" fill="#161C36"/><path d="M80.08 86.53v.03l-.235.406-.234-.407.234-.442.234.413z" fill="#161C36"/><path d="M80.08 86.53l-.033.03-.202.406-.234-.407.234-.442.234.413z" fill="#161C36"/><path d="M80.085 86.558l-.234.41-.234-.41.234-.439.234.41v.03zM124.379.136l-22.453 43.359L79.851.868 57.778 43.495 35.353.168.194 18.406 35.5 86.558l22.278 43.002 22.073-42.566 22.074 42.566L124.2 86.558l35.338-68.21L124.378.136z" fill="#161C36"/><path d="M80.08 86.53v.03l-.235.406-.234-.407.234-.442.234.413z" fill="#161C36"/></svg>