<svg width="130" height="246" fill="none" xmlns="http://www.w3.org/2000/svg"><path d="M98.989 82.053c7.894-7.489-39.996-26.143-39.996-26.143s4.536-13.227 29.932-27.291c18.383 2.261 16.903 25.423 29.401 22.646 30.153-6.708-8.927-30.282-4.473-30.902 29.658-4.564 62.037 7.09 65.71 35.594.755 5.675.428 18.01-7.868 25.643-.199-3.175-.904-3.389-3.271-9.604-3.514-9.129-6.956-10.625-3.179-.175 2.413 6.747 2.593 8.874 2.421 12.798-1.549 1.04-3.17 2.067-4.877 3.152-2.668-6.2-6.092-14.266-13.72-24.127-9.839-12.685-9.53-10.832-1.648 1.544 6.277 9.895 7.767 19.822 9.488 26.284-4.332 2.66-8.98 5.409-13.801 8.272-2.007-2.335-4.185-4.181-11.757-10.522-11.235-9.373-11.639-5.793-2.131 2.869 6.723 6.098 7.565 8.28 8.666 10.662-8.937 5.193-18.421 10.503-27.876 15.669-1.676-2.121-3.551-3.609-9.432-7.526-7.725-5.175-8.232-2.212-1.728 3.097 4.37 3.62 5.94 4.376 7 6.974-12.813 7.047-26.847 14.228-37.853 20.061-1.154-.973-2.07-3.543-8.143-5.332-7.413-2.2-8.042-1.278-1.057 1.959 5.214 2.367 6.584 3.383 6.976 4.431-19.659 10.335-34.051 17.819-34.051 17.819s24.14-11.473 54.623-25.958c.07 3.449 1.322 7.354-.645 15.856-2.292 9.783-1.925 11.722 2.038 2.94 3.409-7.473 2.916-16.009 3.056-20.911a9458.108 9458.108 0 0033.454-15.92c.879 4.28 1.907 6.275 2.38 17.197.558 14.674 3.202 14.147 3.857-2.903.541-12.666-.373-11.052-1.127-16.727 7.908-3.752 15.657-7.46 23.149-10.995 3.075 7.176 5.267 12.759 6.623 21.465 1.681 11.234 7.242 17.927 3.834-1.265-2.673-14.939-2.767-17.123-4.357-23.111 2.554-1.217 5.109-2.434 7.578-3.593l1.722-.782c3.927 4.355 6.511 7.177 11.857 18.01 7.447 14.979 10.296 11.878 3.486-2.154-4.84-9.987-7.166-12.983-11.036-17.626 1.364-.479 2.656-.972 4.006-1.38 5.253 1.404 8.995 2.511 12.372 5.862 4.012 3.924 8.66 4.985 1.285-2.361-3.117-3.151-4.358-4.44-5.627-5.212 41.401-5.772 53.109 49.18 27.461 83.959-.729 1.052-13.418-54.616-29.11-33.27-6.323 8.618 19.085 24.581 15.829 38.133-7.022 28.947-51.975 37.98-51.975 37.98s17.253-38.068 4.115-41.168c-13.067-3.086.314 14.775-14.076 38.243-12.175 19.795-57.156 6.117-57.156 6.117s9.952.682 19.858-10.594c8.934-10.124 13.778-33.298 4.801-38.569-11.657-6.842-1.922 28.079-30.958 37.471-16.672 5.394-28.563-13.967-40.13-23.556-11.567-9.588-26.456-11.761-26.456-11.761s2.029-7.295 7.245-23.226c5.145-15.946-.289-30.903 11.36-37.731 11.577-6.841 38.771 9.92 39.224.374.453-9.546-36.814-9.61-36.814-9.61s2.501-7.8 10.732-25.007c11.528-23.73 50.23 13.96 60.789 3.931z" fill="#161C36"/></svg>